<?xml version="1.0" encoding="utf-8"?>
<!-- Generator: Adobe Illustrator 16.0.0, SVG Export Plug-In . SVG Version: 6.00 Build 0)  -->
<!DOCTYPE svg PUBLIC "-//W3C//DTD SVG 1.1//EN" "http://www.w3.org/Graphics/SVG/1.1/DTD/svg11.dtd">
<svg version="1.1" id="Layer_1" xmlns="http://www.w3.org/2000/svg" xmlns:xlink="http://www.w3.org/1999/xlink" x="0px" y="0px"
	 width="96px" height="96px" viewBox="0 0 96 96" enable-background="new 0 0 96 96" xml:space="preserve">
<g>
	<path d="M92.733,81.207c0,1.977-2.122,3.588-4.743,3.588H8.023c-2.623,0-4.757-1.611-4.757-3.588c0-1.982,2.134-3.592,4.757-3.592
		H87.99C90.611,77.615,92.733,79.225,92.733,81.207L92.733,81.207z"/>
	<path fill="#010101" d="M80,11.205H16c-6.629,0-12,5.37-12,12v40c0,6.629,5.371,12,12,12h28h8h28c6.631,0,12-5.371,12-12v-40
		C92,16.575,86.631,11.205,80,11.205z M48,14.16c1.021,0,1.855,0.835,1.855,1.856c0,1.018-0.835,1.855-1.855,1.855
		s-1.855-0.838-1.855-1.855C46.145,14.995,46.979,14.16,48,14.16z M84,63.205c0,2.209-1.789,4-4,4H16c-2.209,0-4-1.791-4-4v-40
		c0-2.21,1.791-4,4-4h64c2.211,0,4,1.79,4,4V63.205z"/>
</g>
</svg>
