<?xml version="1.0" encoding="utf-8"?>
<!-- Generator: Adobe Illustrator 16.0.0, SVG Export Plug-In . SVG Version: 6.00 Build 0)  -->
<!DOCTYPE svg PUBLIC "-//W3C//DTD SVG 1.1//EN" "http://www.w3.org/Graphics/SVG/1.1/DTD/svg11.dtd">
<svg version="1.1" id="Layer_1" xmlns="http://www.w3.org/2000/svg" xmlns:xlink="http://www.w3.org/1999/xlink" x="0px" y="0px"
	 width="96px" height="96px" viewBox="0 0 96 96" enable-background="new 0 0 96 96" xml:space="preserve">
<g>
	<path fill="#010101" d="M51.748,15.742h-7.495c-0.696,0-1.258,0.564-1.258,1.261c0,0.684,0.562,1.244,1.258,1.244h7.495
		c0.684,0,1.244-0.561,1.244-1.244C52.992,16.307,52.432,15.742,51.748,15.742L51.748,15.742z M76.131,14.748v66.489
		c0,4.233-3.447,7.68-7.678,7.68H27.536c-4.232,0-7.667-3.435-7.667-7.68V14.748c0-4.231,3.435-7.665,7.667-7.665h40.917
		C72.684,7.083,76.131,10.517,76.131,14.748L76.131,14.748z M70.496,75.738H25.504v5.004c0,1.381,1.11,2.504,2.49,2.504h40
		c1.379,0,2.502-1.123,2.502-2.504V75.738z M70.496,23.252H25.504v49.984h44.992V23.252z M70.496,15.742
		c0-1.377-1.123-2.486-2.502-2.486h-40c-1.38,0-2.49,1.109-2.49,2.486v5.007h44.992V15.742z M70.496,15.742"/>
</g>
<circle fill="#010101" cx="48" cy="79.417" r="2.167"/>
</svg>
