<?xml version="1.0" encoding="utf-8"?>
<!-- Generator: Adobe Illustrator 16.0.0, SVG Export Plug-In . SVG Version: 6.00 Build 0)  -->
<!DOCTYPE svg PUBLIC "-//W3C//DTD SVG 1.1//EN" "http://www.w3.org/Graphics/SVG/1.1/DTD/svg11.dtd">
<svg version="1.1" id="Layer_1" xmlns="http://www.w3.org/2000/svg" xmlns:xlink="http://www.w3.org/1999/xlink" x="0px" y="0px"
	 width="96px" height="96px" viewBox="0 0 96 96" enable-background="new 0 0 96 96" xml:space="preserve">
<g>
	<g>
		<path d="M72.9,9.003H23.1c-2.59,0-4.699,2.11-4.699,4.7v68.597c0,2.59,2.109,4.695,4.699,4.695H72.9
			c2.594,0,4.699-2.105,4.699-4.695V13.704C77.6,11.109,75.494,9.003,72.9,9.003z M48.003,11.516c0.491,0,0.895,0.402,0.895,0.895
			c0,0.496-0.403,0.895-0.895,0.895c-0.498,0-0.9-0.404-0.9-0.895C47.103,11.913,47.505,11.516,48.003,11.516z M48.004,84.667
			c-1.283,0-2.314-1.037-2.314-2.313s1.032-2.313,2.314-2.313c1.274,0,2.304,1.037,2.304,2.313S49.278,84.667,48.004,84.667z
			 M71.639,74.833c0,1.375-1.125,2.5-2.5,2.5H26.861c-1.375,0-2.5-1.125-2.5-2.5V21.167c0-1.375,1.125-2.5,2.5-2.5h42.278
			c1.375,0,2.5,1.125,2.5,2.5V74.833z M73.842,80.066"/>
	</g>
</g>
</svg>
